<svg id="visual" viewBox="0 0 900 600" width="900" height="600" xmlns="http://www.w3.org/2000/svg"
	xmlns:xlink="http://www.w3.org/1999/xlink" version="1.1">
	<rect x="0" y="0" width="900" height="600" fill="#212121"></rect>
	<path
		d="M0 411L7.8 408.7C15.7 406.3 31.3 401.7 47.2 396.2C63 390.7 79 384.3 94.8 379.3C110.7 374.3 126.3 370.7 142 371C157.7 371.3 173.3 375.7 189.2 389C205 402.3 221 424.7 236.8 421.8C252.7 419 268.3 391 284.2 388.7C300 386.3 316 409.7 331.8 423.7C347.7 437.7 363.3 442.3 379 436.8C394.7 431.3 410.3 415.7 426.2 403.7C442 391.7 458 383.3 473.8 384C489.7 384.7 505.3 394.3 521 397C536.7 399.7 552.3 395.3 568.2 387.7C584 380 600 369 615.8 373.7C631.7 378.3 647.3 398.7 663.2 404.5C679 410.3 695 401.7 710.8 406C726.7 410.3 742.3 427.7 758 423.3C773.7 419 789.3 393 805.2 393.3C821 393.7 837 420.3 852.8 417.5C868.7 414.7 884.3 382.3 892.2 366.2L900 350L900 601L892.2 601C884.3 601 868.7 601 852.8 601C837 601 821 601 805.2 601C789.3 601 773.7 601 758 601C742.3 601 726.7 601 710.8 601C695 601 679 601 663.2 601C647.3 601 631.7 601 615.8 601C600 601 584 601 568.2 601C552.3 601 536.7 601 521 601C505.3 601 489.7 601 473.8 601C458 601 442 601 426.2 601C410.3 601 394.7 601 379 601C363.3 601 347.7 601 331.8 601C316 601 300 601 284.2 601C268.3 601 252.7 601 236.8 601C221 601 205 601 189.2 601C173.3 601 157.7 601 142 601C126.3 601 110.7 601 94.8 601C79 601 63 601 47.2 601C31.3 601 15.7 601 7.8 601L0 601Z"
		fill="#fc7c00"></path>
	<path
		d="M0 447L7.8 442.5C15.7 438 31.3 429 47.2 433.8C63 438.7 79 457.3 94.8 462.3C110.7 467.3 126.3 458.7 142 446.7C157.7 434.7 173.3 419.3 189.2 410.3C205 401.3 221 398.7 236.8 404.2C252.7 409.7 268.3 423.3 284.2 435.8C300 448.3 316 459.7 331.8 466.7C347.7 473.7 363.3 476.3 379 467.3C394.7 458.3 410.3 437.7 426.2 430.5C442 423.3 458 429.7 473.8 436.5C489.7 443.3 505.3 450.7 521 447.8C536.7 445 552.3 432 568.2 426.8C584 421.7 600 424.3 615.8 422.2C631.7 420 647.3 413 663.2 417C679 421 695 436 710.8 439.5C726.7 443 742.3 435 758 438C773.7 441 789.3 455 805.2 455.7C821 456.3 837 443.7 852.8 437C868.7 430.3 884.3 429.7 892.2 429.3L900 429L900 601L892.2 601C884.3 601 868.7 601 852.8 601C837 601 821 601 805.2 601C789.3 601 773.7 601 758 601C742.3 601 726.7 601 710.8 601C695 601 679 601 663.2 601C647.3 601 631.7 601 615.8 601C600 601 584 601 568.2 601C552.3 601 536.7 601 521 601C505.3 601 489.7 601 473.8 601C458 601 442 601 426.2 601C410.3 601 394.7 601 379 601C363.3 601 347.7 601 331.8 601C316 601 300 601 284.2 601C268.3 601 252.7 601 236.8 601C221 601 205 601 189.2 601C173.3 601 157.7 601 142 601C126.3 601 110.7 601 94.8 601C79 601 63 601 47.2 601C31.3 601 15.7 601 7.8 601L0 601Z"
		fill="#e96703"></path>
	<path
		d="M0 438L7.8 442.2C15.7 446.3 31.3 454.7 47.2 459.3C63 464 79 465 94.8 469.3C110.7 473.7 126.3 481.3 142 485.2C157.7 489 173.3 489 189.2 491.5C205 494 221 499 236.8 497.2C252.7 495.3 268.3 486.7 284.2 483.3C300 480 316 482 331.8 481.8C347.7 481.7 363.3 479.3 379 483.3C394.7 487.3 410.3 497.7 426.2 500.7C442 503.7 458 499.3 473.8 491.5C489.7 483.7 505.3 472.3 521 473.3C536.7 474.3 552.3 487.7 568.2 484.2C584 480.7 600 460.3 615.8 450.8C631.7 441.3 647.3 442.7 663.2 454C679 465.3 695 486.7 710.8 488.7C726.7 490.7 742.3 473.3 758 467.8C773.7 462.3 789.3 468.7 805.2 472.5C821 476.3 837 477.7 852.8 482.7C868.7 487.7 884.3 496.3 892.2 500.7L900 505L900 601L892.2 601C884.3 601 868.7 601 852.8 601C837 601 821 601 805.2 601C789.3 601 773.7 601 758 601C742.3 601 726.7 601 710.8 601C695 601 679 601 663.2 601C647.3 601 631.7 601 615.8 601C600 601 584 601 568.2 601C552.3 601 536.7 601 521 601C505.3 601 489.7 601 473.8 601C458 601 442 601 426.2 601C410.3 601 394.7 601 379 601C363.3 601 347.7 601 331.8 601C316 601 300 601 284.2 601C268.3 601 252.7 601 236.8 601C221 601 205 601 189.2 601C173.3 601 157.7 601 142 601C126.3 601 110.7 601 94.8 601C79 601 63 601 47.2 601C31.3 601 15.7 601 7.8 601L0 601Z"
		fill="#d55305"></path>
	<path
		d="M0 535L7.8 535.3C15.7 535.7 31.3 536.3 47.2 528.7C63 521 79 505 94.8 497.7C110.7 490.3 126.3 491.7 142 496.5C157.7 501.3 173.3 509.7 189.2 512.7C205 515.7 221 513.3 236.8 516.3C252.7 519.3 268.3 527.7 284.2 531.2C300 534.7 316 533.3 331.8 525.8C347.7 518.3 363.3 504.7 379 501.3C394.7 498 410.3 505 426.2 507C442 509 458 506 473.8 505.2C489.7 504.3 505.3 505.7 521 503.3C536.7 501 552.3 495 568.2 498.8C584 502.7 600 516.3 615.8 523C631.7 529.7 647.3 529.3 663.2 530.7C679 532 695 535 710.8 534.7C726.7 534.3 742.3 530.7 758 527C773.7 523.3 789.3 519.7 805.2 515.2C821 510.7 837 505.3 852.8 508C868.7 510.7 884.3 521.3 892.2 526.7L900 532L900 601L892.2 601C884.3 601 868.7 601 852.8 601C837 601 821 601 805.2 601C789.3 601 773.7 601 758 601C742.3 601 726.7 601 710.8 601C695 601 679 601 663.2 601C647.3 601 631.7 601 615.8 601C600 601 584 601 568.2 601C552.3 601 536.7 601 521 601C505.3 601 489.7 601 473.8 601C458 601 442 601 426.2 601C410.3 601 394.7 601 379 601C363.3 601 347.7 601 331.8 601C316 601 300 601 284.2 601C268.3 601 252.7 601 236.8 601C221 601 205 601 189.2 601C173.3 601 157.7 601 142 601C126.3 601 110.7 601 94.8 601C79 601 63 601 47.2 601C31.3 601 15.7 601 7.8 601L0 601Z"
		fill="#c13f06"></path>
	<path
		d="M0 551L7.8 553.2C15.7 555.3 31.3 559.7 47.2 561C63 562.3 79 560.7 94.8 562.3C110.7 564 126.3 569 142 569.5C157.7 570 173.3 566 189.2 562C205 558 221 554 236.8 554C252.7 554 268.3 558 284.2 555.7C300 553.3 316 544.7 331.8 546.5C347.7 548.3 363.3 560.7 379 561.8C394.7 563 410.3 553 426.2 550C442 547 458 551 473.8 548C489.7 545 505.3 535 521 532.8C536.7 530.7 552.3 536.3 568.2 541.3C584 546.3 600 550.7 615.8 554.7C631.7 558.7 647.3 562.3 663.2 559.2C679 556 695 546 710.8 541.2C726.7 536.3 742.3 536.7 758 541.2C773.7 545.7 789.3 554.3 805.2 554.3C821 554.3 837 545.7 852.8 542.2C868.7 538.7 884.3 540.3 892.2 541.2L900 542L900 601L892.2 601C884.3 601 868.7 601 852.8 601C837 601 821 601 805.2 601C789.3 601 773.7 601 758 601C742.3 601 726.7 601 710.8 601C695 601 679 601 663.2 601C647.3 601 631.7 601 615.8 601C600 601 584 601 568.2 601C552.3 601 536.7 601 521 601C505.3 601 489.7 601 473.8 601C458 601 442 601 426.2 601C410.3 601 394.7 601 379 601C363.3 601 347.7 601 331.8 601C316 601 300 601 284.2 601C268.3 601 252.7 601 236.8 601C221 601 205 601 189.2 601C173.3 601 157.7 601 142 601C126.3 601 110.7 601 94.8 601C79 601 63 601 47.2 601C31.3 601 15.7 601 7.8 601L0 601Z"
		fill="#ac2b06"></path>
</svg>